<?xml version="1.0" encoding="utf-8"?>
<!-- Generator: Adobe Illustrator 27.5.0, SVG Export Plug-In . SVG Version: 6.00 Build 0)  -->
<svg version="1.1" xmlns="http://www.w3.org/2000/svg" xmlns:xlink="http://www.w3.org/1999/xlink" x="0px" y="0px"
	 viewBox="0 0 500 500" style="enable-background:new 0 0 500 500;" xml:space="preserve">
<g id="Floor">
	<path id="Floor_3_" style="fill:#F5F5F5;" d="M97.257,429.455c86.063,44.96,225.598,44.961,311.66,0.001
		c86.063-44.961,86.063-117.855,0-162.815c-86.063-44.96-225.598-44.96-311.661-0.001C11.194,311.6,11.194,384.495,97.257,429.455z"
		/>
</g>
<g id="Shadows">
	<ellipse id="Shadow" style="fill:#E0E0E0;" cx="354.662" cy="365.027" rx="40.892" ry="23.609"/>
</g>
<g id="Plants">
	<g id="Plants_3_">
		<g id="XMLID_2129_">
			<g id="XMLID_2124_">
				<g id="XMLID_2127_">
					<path id="XMLID_2131_" style="fill:#27DEBF;" d="M105.596,352.701c-0.606-6.938-6.88-20.871-14.867-29.251
						c-7.987-8.38-19.882-13.978-27.683-10.525c-7.265,3.216-5.596,12.971,4.06,18.687c9.656,5.717,24.029,12.702,29.008,23.608
						l9.591,13.076L105.596,352.701z"/>
					<path id="XMLID_2130_" style="opacity:0.1;" d="M105.596,352.701c-0.606-6.938-6.88-20.871-14.867-29.251
						c-7.987-8.38-19.882-13.978-27.683-10.525c-7.265,3.216-5.596,12.971,4.06,18.687c9.656,5.717,24.029,12.702,29.008,23.608
						l9.591,13.076L105.596,352.701z"/>
				</g>
				<g id="XMLID_2125_">
					<path id="XMLID_1153_" style="fill:#FFFFFF;" d="M106.938,362.15c-0.223,0.001-0.428-0.145-0.492-0.368
						c-6.715-23.279-27.557-40.856-39.397-44.108c-0.271-0.074-0.43-0.355-0.356-0.625c0.074-0.27,0.348-0.435,0.626-0.356
						c12.065,3.313,33.288,21.175,40.105,44.807c0.078,0.27-0.078,0.551-0.347,0.629C107.029,362.143,106.983,362.15,106.938,362.15
						z"/>
				</g>
			</g>
			<g id="XMLID_2122_">
				<g id="XMLID_2123_">
					<path id="XMLID_2126_" style="fill:#27DEBF;" d="M104.73,377.62c-1.455-3.803-6.782-9.823-14.951-14.466
						c-9.037-5.137-20.06-6.898-22.947-11.259c-3.468-5.238,0.714-10.839,9.564-10.518c8.85,0.321,25.288,10.922,29.32,28.692
						L104.73,377.62z"/>
				</g>
				<g id="XMLID_2128_">
					<path id="XMLID_1151_" style="fill:#FFFFFF;" d="M106.067,373.379c-0.194,0.001-0.379-0.109-0.466-0.297
						c-9.036-19.656-25.139-25.425-32.391-25.73c-0.281-0.011-0.499-0.249-0.487-0.53c0.011-0.282,0.238-0.499,0.53-0.487
						c8.019,0.336,24.05,6.258,33.273,26.321c0.117,0.255,0.005,0.558-0.25,0.675C106.208,373.363,106.137,373.378,106.067,373.379z
						"/>
				</g>
			</g>
		</g>
	</g>
	<g id="Plants_4_">
		<g id="XMLID_1160_">
			<g id="XMLID_1221_">
				<path id="XMLID_1222_" style="fill:#27DEBF;" d="M377.172,343.705c-0.152-5.582,1.4-14.946,6.901-24.291
					c5.887-10,13.657-16.701,20.187-14.664c6.082,1.897,4.744,10.151-4.399,19.14c-6.416,6.307-12.912,14.313-15.879,23.455
					l-5.145,11.781L377.172,343.705z"/>
			</g>
			<g id="XMLID_1218_">
				<path id="XMLID_1220_" style="fill:#27DEBF;" d="M377.172,343.705c-0.152-5.582,1.4-14.946,6.901-24.291
					c5.887-10,13.657-16.701,20.187-14.664c6.082,1.897,4.744,10.151-4.399,19.14c-6.416,6.307-12.912,14.313-15.879,23.455
					l-5.145,11.781L377.172,343.705z"/>
			</g>
			<g id="XMLID_1223_" style="opacity:0.1;">
				<path id="XMLID_1224_" d="M377.172,343.705c-0.152-5.582,1.4-14.946,6.901-24.291c5.887-10,13.657-16.701,20.187-14.664
					c6.082,1.897,4.744,10.151-4.399,19.14c-6.416,6.307-12.912,14.313-15.879,23.455l-5.145,11.781L377.172,343.705z"/>
			</g>
			<g id="XMLID_1161_">
				<path id="XMLID_1217_" style="fill:#FFFFFF;" d="M378.188,347.863c0.161-0.017,0.301-0.133,0.342-0.299
					c3.917-15.944,13.845-32.723,23.094-39.026c0.181-0.124,0.227-0.37,0.105-0.55c-0.125-0.182-0.37-0.227-0.55-0.105
					c-9.392,6.402-19.459,23.379-23.417,39.491c-0.052,0.212,0.077,0.427,0.289,0.479
					C378.097,347.865,378.143,347.868,378.188,347.863z"/>
			</g>
		</g>
		<g id="XMLID_1154_">
			<path id="XMLID_1159_" style="fill:#27DEBF;" d="M377.116,361.784c0,0,3.906,3.908,10.863,5.439
				c6.957,1.531,10.257-1.643,10.257-1.643s-2.373-6.753-6.251-8.838c0,0,6.68,1.782,11.892,5.727c0,0,4.285,0.321,6.383-6.123
				c0,0-2.307-4.091-10.705-6.727c0,0,5.265-0.996,12.626,1.356c0.547,0.256,3.441-8.065,4.397-11.926
				c0.956-3.861-0.616-3.914-3.612-4.908c-2.996-0.994-13.331-2.123-15.336-0.563c-2.005,1.561-3.315,7.228-3.315,7.228
				s-1.63-3.348-1.02-6.213c0,0-2.995-1.219-6.486-0.231c-3.491,0.988-3.373,2.668-3.521,5.156
				c-0.159,2.661-0.001,4.443,0.583,7.471c0,0-2.24-2.184-1.874-9.721c0,0-4.858,3.68-6.916,6.969
				C373.021,347.522,372.961,356.445,377.116,361.784z"/>
			<g id="XMLID_1157_">
				<path id="XMLID_1158_" style="fill:#FFFFFF;" d="M377.092,362.179c0.147,0.009,0.293-0.065,0.369-0.203
					c6.37-11.437,28.258-23.864,35.894-24.882c0.216-0.029,0.369-0.228,0.34-0.445c-0.029-0.217-0.23-0.367-0.445-0.34
					c-7.762,1.035-30.009,13.661-36.48,25.282c-0.107,0.191-0.038,0.432,0.153,0.538
					C376.978,362.159,377.035,362.175,377.092,362.179z"/>
			</g>
		</g>
	</g>
</g>
<g id="Device">
	<g id="Device_1_">
		<path id="XMLID_304_" style="fill:#37474F;" d="M111.001,385.284l-2.721-1.571c-2.21-1.276-4.002-4.38-4.002-6.933V138.286
			c0-2.552,1.792-5.656,4.002-6.932l109.994-63.506c2.21-1.276,5.794-1.276,8.005,0l2.724,1.572c2.211,1.276,4.003,4.38,4.003,6.932
			v238.494c0,2.552-1.792,5.656-4.002,6.932l-109.997,63.506C116.795,386.561,113.211,386.561,111.001,385.284z"/>
		<path id="XMLID_301_" style="fill:#263238;" d="M120.367,142.955l-14.918-8.613c-0.724,1.255-1.172,2.668-1.172,3.944V376.78
			c0,2.552,1.792,5.656,4.002,6.933l2.721,1.571c2.211,1.276,5.794,1.276,8.005,0l1.362-0.786V142.955z"/>
		<path id="XMLID_298_" style="fill:#455A64;" d="M115.003,144.48v238.494c0,2.552,1.792,3.587,4.003,2.311l109.997-63.506
			c2.21-1.276,4.002-4.38,4.002-6.932V76.353c0-2.552-1.792-3.587-4.003-2.311l-109.997,63.506
			C116.795,138.824,115.003,141.928,115.003,144.48z"/>
		<path id="XMLID_294_" style="fill:#FAFAFA;" d="M123.797,159.555l100.019-57.741c1.895-1.094,3.431-0.207,3.431,1.981v190.267
			c0,2.188-1.536,4.848-3.431,5.942l-100.018,57.741c-1.895,1.094-3.431,0.207-3.431-1.981l-0.001-190.266
			C120.367,163.309,121.902,160.649,123.797,159.555z"/>
		<g id="XMLID_1334_" style="opacity:0.4;">
			<path id="XMLID_1336_" style="fill:#27DEBF;" d="M174.361,174.552c11.213-6.475,20.304-1.226,20.304,11.721
				c0,12.948-9.091,28.693-20.304,35.167c-11.213,6.473-20.304,1.226-20.304-11.723
				C154.057,196.769,163.148,181.025,174.361,174.552z"/>
			<path id="XMLID_1335_" style="fill:#27DEBF;" d="M214.374,243.798c0-21.272-14.936-30.716-33.355-20.079l-11.518,6.648
				c-18.419,10.636-33.355,36.502-33.355,57.774v5.725l78.228-45.135V243.798z"/>
		</g>
		<path id="XMLID_271_" style="fill:#263238;" d="M174.003,111.988c1.481-0.855,2.682-0.162,2.682,1.549
			c0,1.71-1.201,3.79-2.682,4.645c-1.481,0.855-2.682,0.162-2.682-1.548C171.321,114.923,172.522,112.843,174.003,111.988z"/>
		<g id="XMLID_233_">
			<path id="XMLID_241_" style="fill:#263238;" d="M166.259,125.384c5.449-3.012,15.17-8.798,20.542-11.958
				c0.912-0.536,1.651-0.167,1.651,0.826c0,0.993-0.743,2.226-1.659,2.755l-20.577,11.884c-0.916,0.529-1.659,0.153-1.659-0.84
				C164.557,127.06,165.333,125.896,166.259,125.384z"/>
			<path id="XMLID_238_" style="fill:#263238;" d="M161.06,128.389c0.832-0.48,1.506-0.091,1.506,0.869
				c0,0.96-0.674,2.128-1.506,2.608c-0.832,0.48-1.506,0.091-1.506-0.87C159.554,130.036,160.229,128.869,161.06,128.389z"/>
		</g>
		<path id="XMLID_198_" style="fill:#263238;" d="M174.003,334.951c2.962-1.71,5.364-0.324,5.364,3.097
			c0,3.421-2.401,7.58-5.364,9.29c-2.962,1.71-5.364,0.324-5.364-3.097C168.639,340.821,171.041,336.662,174.003,334.951z"/>
	</g>
</g>
<g id="Check_Mark">
	<g>
		<g id="XMLID_859_">
			<g id="XMLID_872_">
				<path id="XMLID_956_" style="fill:#27DEBF;" d="M265.214,268.144l-12.062-6.963c0,0-0.012,0-0.025,0l-0.125-0.075l-0.013,0.025
					c-5.998-3.387-14.221-2.887-23.331,2.374c-8.522,4.911-16.295,13.109-22.156,22.594c-6.773,10.922-11.034,23.568-11.034,34.902
					c0,10.572,3.699,17.995,9.685,21.469v0.013l0.038,0.012l12.247,6.995c6.048,3.856,14.587,3.514,24.059-1.955
					c18.335-10.586,33.199-36.329,33.2-57.501C275.698,279.013,271.664,271.414,265.214,268.144z"/>
				<g id="XMLID_873_">
					<path id="XMLID_955_" style="opacity:0.1;" d="M218.199,349.354l-12.011-6.863l-0.038-0.013v-0.013
						c-5.987-3.469-9.681-10.896-9.681-21.467c0-11.335,4.258-23.972,11.034-34.894l12.813,7.389
						c-6.776,10.921-11.022,23.546-11.022,34.869C209.294,338.47,212.675,345.697,218.199,349.354z"/>
					<path id="XMLID_954_" style="opacity:0.4;fill:#FFFFFF;" d="M264.966,268.007c-5.912-2.868-13.802-2.142-22.469,2.856
						c-8.529,4.935-16.307,13.138-22.181,22.632l-12.813-7.389c5.861-9.494,13.639-17.685,22.156-22.595
						c9.105-5.26,17.334-5.761,23.333-2.38l0.012-0.025l0.125,0.075c0.013,0,0.025,0,0.025,0L264.966,268.007z"/>
				</g>
			</g>
		</g>
		<g id="XMLID_1080_">
			<polygon id="XMLID_1085_" style="fill:#FFFFFF;" points="259.785,281.496 255.188,278.843 237.176,321.289 240.248,323.062 			
				"/>
			<polygon id="XMLID_1084_" style="fill:#FFFFFF;" points="233.646,311.813 229.049,309.159 224.113,319.61 228.71,322.263 			"/>
			<g id="XMLID_1082_">
				<polygon id="XMLID_1083_" style="fill:#F5F5F5;" points="241.432,335.509 228.71,322.263 233.646,311.813 240.248,323.062 
					259.785,281.496 267.026,288.562 				"/>
			</g>
			<polygon id="XMLID_1081_" style="fill:#E0E0E0;" points="224.113,319.61 228.71,322.263 241.432,335.509 236.838,332.883 			"/>
		</g>
	</g>
</g>
<g id="Character">
	<g id="XMLID_1152_">
		<path id="XMLID_1150_" style="fill:#263238;" d="M358.956,163.923L358.956,163.923c10.85,0,19.645-8.796,19.645-19.645v-1.159
			c0-9.195-7.454-16.65-16.65-16.65h-5.991c-9.195,0-16.65,7.454-16.65,16.65v1.159
			C339.311,155.128,348.107,163.923,358.956,163.923z"/>
		<g id="XMLID_1235_">
			<path id="XMLID_1149_" style="fill:#263238;" d="M338.738,358.185c-2.28,2.497-4.796,4.498-7.496,6.52
				c-0.404,0.302-0.822,0.622-1.041,1.077c-0.354,0.735-0.903,2.555,2.449,3.724c3.275,1.143,7.359,0.875,10.342-0.992
				c2.753-1.723,2.876-5.308,5.473-7.352c1.925-1.515,4.328-1.904,5.884-3.882c1.083-1.378,0.801-3.212,0.236-5.482
				c-0.616-2.478-0.9-4.353-1.721-4.163l0.135,1.14c-1.023,1.633-6.327,2.115-8.688,0.988
				C344.311,349.764,340.226,356.556,338.738,358.185z"/>
			<path id="XMLID_1148_" style="fill:#B16668;" d="M336.413,360.503c0-0.003,0-0.014,0-0.018c0.797-0.73,1.578-1.483,2.326-2.302
				c0.959-1.05,2.998-4.243,4.328-6.38c0.809-1.3,1.397-2.854,1.212-4.567s-0.66-6.108-0.66-6.108l8.404-0.594l0.977,8.24v-0.001
				c0.203,1.868-1.34,3.526-4.075,5.882c-2.734,2.356-6.208,7.852-8.683,9.235c-2.476,1.383-4.246,1.331-5.302,0.624
				C333.853,363.787,333.746,363.228,336.413,360.503z"/>
			<path id="XMLID_1147_" style="fill:#263238;" d="M370.695,358.936v-1.263c-0.498,1.482-2.809,7.859-6.313,11.056
				c-2.786,2.541-6.586,5.476-7.553,8.309c-1.005,2.946,5.289,3.936,7.891,3.475c3.024-0.536,6.937-2.251,9.066-4.868
				c1.497-1.84,2.451-4.02,3.52-5.467c1.069-1.447,3.534-3.062,4.112-4.736c0.318-0.92-0.06-2.934-0.506-4.636
				c-0.409-1.562-0.853-3.279-1.386-3.132c-0.002,0.19,0,0.963,0,0.963c-0.641,0.711-2.415,1.416-4.416,1.493
				C373.819,360.178,370.684,359.922,370.695,358.936z"/>
			<path id="XMLID_1146_" style="fill:#B16668;" d="M361.861,370.964c0.864-0.771,1.733-1.525,2.522-2.244
				c2.448-2.234,4.314-6.021,5.386-8.605c0.612-1.475,0.927-3.05,0.927-4.648v-5.034h8.832v8.194v0v0.001v0.219l-0.044,0.022
				c-0.425,1.835-4.478,6.717-6.781,9.9c-1.543,2.134-4.477,4.849-7.981,5.317C361.4,374.53,359.702,373.483,361.861,370.964z"/>
			<path id="XMLID_1145_" style="fill:#27DEBF;" d="M377.77,221.679c6.847,14.954-0.247,67.634-0.247,67.634
				c0.206,2.427,2.981,7.202,4.014,17.883c1.221,12.62-1.916,44.308-1.916,44.308s-4.089,2.674-8.926,0.355
				c0,0-8.417-47.725-10-60.273c-1.381-10.951-4.033-36.69-4.033-36.69l-6.882,36.924c0,0,2.237,6.01,2.689,10.684
				c0.715,7.381,0.178,41.52,0.178,41.52s-3.019,2.297-8.803,1.445c0,0-10.019-46.734-10.794-55.617
				c-0.463-5.306,5.585-70.361,5.585-70.361L377.77,221.679z"/>
			<path id="XMLID_1_" style="opacity:0.6;" d="M377.77,221.679c6.847,14.954-0.247,67.634-0.247,67.634
				c0.206,2.427,2.981,7.202,4.014,17.883c1.221,12.62-1.916,44.308-1.916,44.308s-4.089,2.674-8.926,0.355
				c0,0-8.417-47.725-10-60.273c-1.381-10.951-4.033-36.69-4.033-36.69l-6.882,36.924c0,0,2.237,6.01,2.689,10.684
				c0.715,7.381,0.178,41.52,0.178,41.52s-3.019,2.297-8.803,1.445c0,0-10.019-46.734-10.794-55.617
				c-0.463-5.306,5.585-70.361,5.585-70.361L377.77,221.679z"/>
			<path id="XMLID_1144_" style="opacity:0.3;" d="M356.662,254.896l-2.223-12.229c0,0-9.404-1.948-13.669-5.958
				c0,0,4.475,5.566,11.121,7.389l2.497,10.694l-3.932,33.402L356.662,254.896z"/>
		</g>
		<g id="XMLID_1228_">
			<path id="XMLID_1143_" style="fill:#B16668;" d="M388.93,215.178c-0.07-0.981-1.908-11.452-3.173-17.309l-12.31,3.773
				l2.188,10.775l10.372,8.324C389.255,220.096,389,216.159,388.93,215.178z"/>
			<polygon id="XMLID_1142_" style="fill:#B16668;" points="329.393,193.102 323.574,203.769 332.626,211.528 340.916,198.382 			
				"/>
			<path id="XMLID_1141_" style="fill:#27DEBF;" d="M351.226,169.326c-5.77,0.059-12.125,2.158-14.312,6.683
				c-2.186,4.525-8.241,17.007-8.241,17.007s5.387,7.32,13.477,6.794L351.226,169.326z"/>
			<path id="XMLID_3_" style="opacity:0.6;" d="M351.226,169.326c-5.77,0.059-12.125,2.158-14.312,6.683
				c-2.186,4.525-8.241,17.007-8.241,17.007s5.387,7.32,13.477,6.794L351.226,169.326z"/>
			<path id="XMLID_1140_" style="fill:#F5F5F5;" d="M363.174,169.532l4.802,0.194c5.227,1.258,7.111,4.843,9.307,9.48
				c1.672,3.53,1.691,7.623,0.415,11.314l-6.117,17.696c0,0,2.864,6.923,6.189,13.464c-15.351,8.568-34.519,4.064-39.135-2.188
				c-0.195-1.326,0.07-7.304-0.302-14.106c-0.397-7.253-1.393-15.442-0.253-19.926c2.117-8.322,6.082-16.134,13.975-16.134
				L363.174,169.532z"/>
			<path id="XMLID_1139_" style="fill:#27DEBF;" d="M367.975,169.725c5.239,0.741,12.931,1.797,15.583,14.249
				c2.688,12.62,3.205,15.624,3.205,15.624s-4.581,4.57-13.272,4.529C373.492,204.127,365.826,179.346,367.975,169.725z"/>
			<path id="XMLID_2_" style="opacity:0.6;" d="M367.975,169.725c5.239,0.741,12.931,1.797,15.583,14.249
				c2.688,12.62,3.205,15.624,3.205,15.624s-4.581,4.57-13.272,4.529C373.492,204.127,365.826,179.346,367.975,169.725z"/>
			<path id="XMLID_1138_" style="fill:#EBEBEB;" d="M373.259,203.358c-0.964-3.308-1.988-7.085-2.95-11.147
				c0,0,0.039,8.846,1.549,15.198L373.259,203.358z"/>
		</g>
		<g id="XMLID_1219_">
			<path id="XMLID_1136_" style="fill:#B16668;" d="M345.765,134.414c-2.075,1.226-4.64,6.446-4.387,17.387
				c0.215,9.273,3.22,11.563,4.729,12.224c1.509,0.66,4.42,0.259,7.25-0.213v5.565c0,0-3.911,4.542-3.664,7.095
				c0.246,2.552,5.647,3.155,9.307,0.662c3.66-2.493,6.006-6.287,6.006-6.287v-13.452c0,0,1.91,2.551,5.035,0.476
				s3.243-7.211,1.427-9.055c-1.816-1.844-5.732-1.26-6.462,1.288c0,0-4.513,0.165-10.522-3.137
				C348.473,143.664,346.164,138.01,345.765,134.414z"/>
			<path id="XMLID_1121_" style="fill:#263238;" d="M351.731,149.471c-0.034,0.668,0.461,1.234,1.104,1.265
				c0.643,0.031,1.192-0.486,1.225-1.155c0.034-0.668-0.461-1.235-1.104-1.265C352.313,148.286,351.765,148.803,351.731,149.471z"/>
			<path id="XMLID_1120_" style="fill:#9A4A4D;" d="M351.42,157.332l-2.708,0.864c0.225,0.775,1.013,1.21,1.761,0.972
				C351.221,158.929,351.645,158.107,351.42,157.332z"/>
			<path id="XMLID_1119_" style="fill:#263238;" d="M342.17,145.891l2.359-1.635c-0.43-0.674-1.308-0.854-1.959-0.402
				C341.919,144.305,341.74,145.217,342.17,145.891z"/>
			<path id="XMLID_1116_" style="fill:#263238;" d="M342.714,148.628c-0.034,0.668,0.461,1.234,1.104,1.265
				c0.643,0.031,1.192-0.486,1.225-1.155c0.033-0.668-0.461-1.234-1.104-1.265C343.297,147.443,342.748,147.96,342.714,148.628z"/>
			<polygon id="XMLID_1115_" style="fill:#9A4A4D;" points="348.215,147.961 348.03,154.98 344.336,153.836 			"/>
			<path id="XMLID_1112_" style="fill:#9A4A4D;" d="M353.357,163.812c2.982-0.391,9.117-2.154,10.074-4.579
				c0,0-0.319,1.524-2.151,3.095c-1.833,1.571-7.922,3.34-7.922,3.34V163.812z"/>
		</g>
		<g id="XMLID_1155_">
			<polygon id="XMLID_1107_" style="fill:#27DEBF;" points="304.551,192.446 338.405,201.362 348.398,243.377 316.212,234.029 			
				"/>
			<path id="XMLID_1106_" style="opacity:0.15;" d="M319.311,220.247c-0.314,0.858-2.167,3.24-6.108,3.052l-0.487-1.738
				L319.311,220.247z"/>
			<path id="XMLID_1105_" style="opacity:0.15;" d="M326.877,221.561c0.149,1.119,2.452,3.194,6.343,4.491
				c4.428,1.476,11.223,0.695,11.223,0.695l-0.609-2.09L326.877,221.561z"/>
			<path id="XMLID_1104_" style="opacity:0.15;" d="M314.462,198.53c0,0-0.125-0.578-0.279-1.291
				c-0.154-0.713,1.832-0.744,4.438-0.068l4.988,1.294c2.605,0.676,4.842,1.801,4.996,2.515l0.279,1.291L314.462,198.53z"/>
			<g id="XMLID_1156_">
				<path id="XMLID_1103_" style="fill:#37474F;" d="M312.116,193.659c-0.098-0.446,0.707-0.562,1.798-0.261l1.975,0.546
					c0,0-0.589-2.792,3.794-1.816c4.383,0.976,5.341,4.147,5.341,4.147s0.944,0.268,2.109,0.599c1.165,0.331,2.22,0.959,2.358,1.402
					l0.249,0.803l-17.439-4.591C312.301,194.487,312.214,194.105,312.116,193.659z"/>
				<path id="XMLID_1099_" style="fill:#37474F;" d="M314.517,195.054c1.598,0.385,2.262,0.598,2.501,1.697
					c0.273,1.256,0.384,2.177,0.384,2.177l7.719,2.04c0,0-0.373-1.59-0.492-2.209c-0.119-0.62,0.144-0.993,1.372-0.668l0.104-0.492
					l-12.094-3.079L314.517,195.054z"/>
				<path id="XMLID_845_" style="fill:#37474F;" d="M314.252,198.652c0,0-0.125-0.578-0.279-1.291
					c-0.154-0.713,1.832-0.744,4.438-0.068l4.988,1.294c2.605,0.675,4.842,1.801,4.996,2.515l0.279,1.291L314.252,198.652z"/>
			</g>
		</g>
		<path id="XMLID_730_" style="fill:#B16668;" d="M386.007,220.741l-10.372-8.324c0,0-22.919,4.083-25.613,4.295
			c-2.693,0.212-5.684-1.69-6.711-4.334c-1.027-2.644-2.835-2.315-2.835-2.315s0.797,3.351,1.052,4.421
			c0.254,1.07-6.201,1.949-9.78,0.737c-3.58-1.212-8.763,0.548-5.552,5.423c3.211,4.875,9.453,5.437,13.79,5.441
			c1.199,0.001,3.329-0.09,5.423-0.362c1.403-0.182,2.799-0.324,4.21-0.424C358.493,224.664,381.973,222.007,386.007,220.741z"/>
		<path id="XMLID_728_" style="fill:#B16668;" d="M307.995,204.729c0,0,1.213,4.325,1.502,5.358c0.29,1.032,4.226,2.907,6.714,3.591
			c2.488,0.684,5.21,1.494,4.033,4.973c-1.086,3.208-5.181,3.941-7.266,3.85c-2.085-0.091-4.939-2.083-6.064-5.295
			c-1.434-4.097-0.661-8.474-1.231-10.867C305.115,203.946,306.748,203.302,307.995,204.729z"/>
		<path id="XMLID_1137_" style="fill:#263238;" d="M376.137,185.46L376.137,185.46c-6.148,0-11.132-4.984-11.132-11.132v-15.625l0,0
			c6.148,0,11.132,4.984,11.132,11.132V185.46z"/>
	</g>
</g>
</svg>
